<svg xmlns="http://www.w3.org/2000/svg" viewBox="0 0 360 220" role="img"
  aria-label="Heapify sift-down (mixed)">
  <title>Heapify sift-down (mixed)</title>
  <style>
    :root {
      --ink: #2B2B2B;
      --hit: #00A3FF;
      --loop: 3.6s;
      --ease: cubic-bezier(0.4, 0, 0.2, 1);
      --delay-sm: 0.2s;
    }
    .edge {
      stroke: var(--ink);
      stroke-width: 4;
      opacity: 0.25;
    }
    .edge.active {
      animation: edgePulse var(--loop) var(--ease) infinite;
    }
    .node {
      fill: #FFFFFF;
      stroke: var(--ink);
      stroke-width: 3;
    }
    .node.hit {
      animation: nodePulse var(--loop) var(--ease) infinite;
    }
    .label {
      font-family: "SF Mono", Menlo, monospace;
      font-size: 14px;
      fill: var(--ink);
      text-anchor: middle;
      dominant-baseline: middle;
    }
    @keyframes nodePulse {
      0%, 100% { stroke: var(--ink); }
      35% { stroke: var(--hit); }
    }
    @keyframes edgePulse {
      0%, 100% { stroke: var(--ink); }
      35% { stroke: var(--hit); }
    }
    @media (prefers-reduced-motion: reduce) {
      .node.hit, .edge.active { animation: none; }
    }
  </style>
  <line class="edge active" x1="180" y1="40" x2="110" y2="100" />
  <line class="edge" x1="180" y1="40" x2="250" y2="100" />
  <line class="edge" x1="110" y1="100" x2="70" y2="160" />
  <line class="edge active" x1="110" y1="100" x2="150" y2="160" />
  <line class="edge" x1="250" y1="100" x2="220" y2="160" />
  <line class="edge" x1="250" y1="100" x2="290" y2="160" />

  <circle class="node hit" cx="180" cy="40" r="22" />
  <text class="label" x="180" y="40">4</text>

  <circle class="node" cx="110" cy="100" r="22" />
  <text class="label" x="110" y="100">9</text>

  <circle class="node" cx="250" cy="100" r="22" />
  <text class="label" x="250" y="100">6</text>

  <circle class="node" cx="70" cy="160" r="22" />
  <text class="label" x="70" y="160">5</text>

  <circle class="node hit" cx="150" cy="160" r="22" />
  <text class="label" x="150" y="160">8</text>

  <circle class="node" cx="220" cy="160" r="22" />
  <text class="label" x="220" y="160">3</text>

  <circle class="node" cx="290" cy="160" r="22" />
  <text class="label" x="290" y="160">2</text>

  <circle r="8" fill="var(--hit)">
    <animateMotion dur="3.6s" repeatCount="indefinite"
      path="M180 40 L110 100 L150 160" />
  </circle>
</svg>
